<?xml version="1.0" encoding="UTF-8" standalone="no"?>
<!-- Uploaded to: SVG Repo, www.svgrepo.com, Generator: SVG Repo Mixer Tools -->

<svg
   width="800px"
   height="800px"
   viewBox="0 0 48 48"
   fill="none"
   version="1.1"
   id="svg1"
   sodipodi:docname="plantation-worker-svgrepo-com.svg"
   inkscape:version="1.3.2 (091e20e, 2023-11-25, custom)"
   xmlns:inkscape="http://www.inkscape.org/namespaces/inkscape"
   xmlns:sodipodi="http://sodipodi.sourceforge.net/DTD/sodipodi-0.dtd"
   xmlns:xlink="http://www.w3.org/1999/xlink"
   xmlns="http://www.w3.org/2000/svg"
   xmlns:svg="http://www.w3.org/2000/svg">
  <defs
     id="defs1">
    <linearGradient
       id="linearGradient1"
       inkscape:collect="always">
      <stop
         style="stop-color:#244e73;stop-opacity:1;"
         offset="0"
         id="stop1" />
      <stop
         style="stop-color:#4e98d9;stop-opacity:1;"
         offset="1"
         id="stop2" />
    </linearGradient>
    <linearGradient
       inkscape:collect="always"
       xlink:href="#linearGradient1"
       id="linearGradient2"
       x1="4"
       y1="24.455515"
       x2="44.196198"
       y2="24.455515"
       gradientUnits="userSpaceOnUse"
       gradientTransform="matrix(1.144334,0,0,1.144334,-3.4123698,-3.7150884)" />
  </defs>
  <sodipodi:namedview
     id="namedview1"
     pagecolor="#505050"
     bordercolor="#eeeeee"
     borderopacity="1"
     inkscape:showpageshadow="0"
     inkscape:pageopacity="0"
     inkscape:pagecheckerboard="0"
     inkscape:deskcolor="#505050"
     inkscape:zoom="0.97125"
     inkscape:cx="400"
     inkscape:cy="400"
     inkscape:window-width="2400"
     inkscape:window-height="1261"
     inkscape:window-x="2391"
     inkscape:window-y="-9"
     inkscape:window-maximized="1"
     inkscape:current-layer="svg1" />
  <path
     fill-rule="evenodd"
     clip-rule="evenodd"
     d="m 18.902144,9.915189 c 2.527948,0 4.577337,-2.0492735 4.577337,-4.577302 0,-2.5279941 -2.049389,-4.57733615 -4.577337,-4.57733615 -2.527947,0 -4.577336,2.04934205 -4.577336,4.57733615 0,2.5280285 2.049389,4.577302 4.577336,4.577302 z m -2.787827,1.726571 c -0.04188,0 -0.08353,6.87e-4 -0.124961,0.0022 H 13.752527 7.0501391 V 6.4827474 H 5.0884186 V 11.643934 H 2.8814675 c -0.9480007,0 -1.7165011,0.768535 -1.7165011,1.716502 0,0.947967 0.7685004,1.716501 1.7165011,1.716501 h 2.2069511 v 20.969006 c -1.1075893,0.226464 -2.102977,0.828383 -2.8178767,1.704142 -0.7148998,0.875759 -1.1054382,1.971573 -1.1055755,3.102061 v 5.885196 h 1.9617204 v -6.86612 h 1.9617318 v 6.86612 h 1.9617205 v -6.86612 h 1.9617548 v 6.86612 H 10.973625 V 40.852146 C 10.973397,39.721658 10.582951,38.625844 9.8679701,37.750085 9.1531047,36.874326 8.1577629,36.272407 7.0501391,36.045943 V 15.076937 H 12.7034 v 29.617768 c 0,1.028757 0.841659,1.870528 1.87053,1.870528 1.028756,0 1.870414,-0.841771 1.870414,-1.870528 V 30.764841 h 4.885391 v 13.929864 c 0,1.028757 0.841657,1.870528 1.870528,1.870528 1.028756,0 1.870413,-0.841771 1.870413,-1.870528 V 23.926529 c 1.028757,0 4.205543,-1.958184 4.205543,-6.780064 0,-3.634291 -3.176786,-5.504705 -4.205543,-5.504705 z m 22.100638,0.913178 c 2.29e-4,-2.27e-4 3.44e-4,-3.43e-4 0.713035,0.894984 0.712692,-0.895327 0.712806,-0.895211 0.713034,-0.894984 l 4.58e-4,3.43e-4 0.0012,8.03e-4 0.0028,0.0023 0.0081,0.0064 0.02563,0.02083 c 0.02117,0.0174 0.05035,0.04165 0.08651,0.07221 0.07221,0.06111 0.172566,0.148077 0.291805,0.257018 0.236764,0.216279 0.555575,0.525707 0.877819,0.89567 0.319384,0.366645 0.662684,0.815796 0.930802,1.312551 0.263654,0.488173 0.495039,1.096272 0.495039,1.759871 0,0.6636 -0.231385,1.271699 -0.495039,1.759871 -0.268118,0.496756 -0.611418,0.945907 -0.930802,1.312553 -0.315493,0.362181 -0.627667,0.66646 -0.862828,0.881937 v 2.35893 c 0.289746,-0.462997 0.694954,-0.9522 1.256594,-1.27639 0.574684,-0.331856 1.216999,-0.435533 1.771543,-0.451325 0.564271,-0.01603 1.124995,0.05664 1.602069,0.149907 0.481535,0.09406 0.909058,0.215364 1.214709,0.31229 0.153913,0.04886 0.279332,0.09223 0.368361,0.124274 0.02804,0.01005 0.05253,0.019 0.07324,0.02667 0.01224,0.0046 0.02312,0.0086 0.03262,0.01213 l 0.03078,0.01179 0.0097,0.0037 0.0034,0.0013 0.0014,4.58e-4 4.58e-4,2.28e-4 c 2.28e-4,1.15e-4 5.72e-4,2.3e-4 -0.418483,1.065032 1.13163,0.16959 1.13163,0.16982 1.13163,0.170049 l -1.13e-4,5.71e-4 -2.29e-4,0.0014 -5.72e-4,0.0035 -0.0015,0.01015 -0.0052,0.03262 c -0.0045,0.02701 -0.01087,0.06443 -0.01923,0.111 -0.01682,0.09315 -0.04199,0.223489 -0.07667,0.381178 -0.06888,0.313204 -0.177601,0.744046 -0.336777,1.208073 -0.157804,0.459793 -0.375227,0.981725 -0.67138,1.462344 -0.290891,0.472496 -0.701821,0.976804 -1.276506,1.308662 -0.574684,0.331856 -1.216998,0.435418 -1.771658,0.451211 -0.564271,0.01613 -1.12488,-0.05653 -1.602068,-0.149794 -0.481535,-0.09418 -0.908944,-0.215478 -1.214596,-0.312403 -0.02151,-0.0068 -0.04234,-0.0135 -0.06259,-0.02002 -0.01316,-0.0041 -0.02599,-0.0085 -0.03868,-0.01259 v 3.384254 c 0.289745,-0.462998 0.694954,-0.9522 1.256593,-1.276391 0.574685,-0.331857 1.216999,-0.435533 1.771544,-0.451325 0.56427,-0.01603 1.124994,0.05664 1.602068,0.149909 0.481535,0.09406 0.909059,0.215363 1.21471,0.312287 0.153913,0.04886 0.279332,0.09223 0.368361,0.124275 0.04463,0.01603 0.08021,0.02918 0.105852,0.03879 l 0.03079,0.01179 0.0097,0.0037 0.0034,0.0013 0.0014,4.57e-4 4.58e-4,2.3e-4 c 2.28e-4,1.13e-4 5.72e-4,2.27e-4 -0.418483,1.06503 1.131631,0.16959 1.131631,0.16982 1.131631,0.170049 l -1.14e-4,5.72e-4 -2.29e-4,0.0014 -5.72e-4,0.0035 -0.0015,0.01015 -0.0052,0.03262 c -0.0045,0.02701 -0.01087,0.06443 -0.01923,0.111001 -0.01682,0.09315 -0.04199,0.223488 -0.07667,0.381177 -0.06889,0.313205 -0.177601,0.744047 -0.336777,1.208074 -0.157804,0.459794 -0.375227,0.981723 -0.67138,1.462344 -0.290891,0.472496 -0.701821,0.976804 -1.276507,1.30866 -0.574683,0.331857 -1.216997,0.435419 -1.771657,0.451211 -0.564271,0.01614 -1.12488,-0.05652 -1.602067,-0.149793 -0.481536,-0.09418 -0.908945,-0.215478 -1.214597,-0.312403 -0.03536,-0.01121 -0.06912,-0.02209 -0.101273,-0.03262 v 3.384254 c 0.289745,-0.462998 0.694953,-0.9522 1.256593,-1.27639 0.574685,-0.331858 1.216999,-0.435534 1.771544,-0.451325 0.56427,-0.01602 1.124994,0.05664 1.602068,0.149907 0.481535,0.09406 0.909059,0.215364 1.21471,0.312289 0.153913,0.04886 0.279332,0.09223 0.368361,0.124275 0.04462,0.01602 0.08021,0.02919 0.105852,0.03879 l 0.03078,0.01179 0.0097,0.0037 0.0034,0.0013 0.0014,4.58e-4 4.58e-4,2.29e-4 c 2.28e-4,1.14e-4 5.72e-4,2.3e-4 -0.418483,1.065032 1.131631,0.16959 1.131631,0.169819 1.131631,0.170048 l -1.14e-4,5.72e-4 -2.28e-4,0.0014 -5.73e-4,0.0035 -0.0015,0.01015 -0.0052,0.03262 c -0.0022,0.01271 -0.0047,0.0278 -0.0077,0.04509 -0.0034,0.01923 -0.0071,0.0413 -0.01155,0.06592 -0.01682,0.09315 -0.04199,0.223488 -0.07667,0.381177 -0.06889,0.313205 -0.1776,0.744047 -0.336777,1.208075 -0.157803,0.459793 -0.375227,0.981724 -0.671381,1.462344 -0.29089,0.472496 -0.701821,0.976804 -1.276505,1.308661 -0.574684,0.331856 -1.216999,0.435419 -1.771658,0.45121 -0.564271,0.01613 -1.12488,-0.05652 -1.602067,-0.149793 -0.481536,-0.09418 -0.908945,-0.215479 -1.214596,-0.312403 -0.02026,-0.0064 -0.03993,-0.01271 -0.05917,-0.01889 -0.01431,-0.0047 -0.02838,-0.0094 -0.04211,-0.01373 v 2.792518 c 0,0.632016 -0.512318,1.144335 -1.144333,1.144335 -0.632015,0 -1.144334,-0.512319 -1.144334,-1.144335 v -2.721433 c -0.292721,0.08926 -0.671496,0.192019 -1.091466,0.274068 -0.477072,0.09326 -1.037796,0.165928 -1.602067,0.149794 -0.554545,-0.01579 -1.19686,-0.119355 -1.771544,-0.451211 -0.574685,-0.331857 -0.985615,-0.836166 -1.276619,-1.308661 -0.296039,-0.48062 -0.513463,-1.002551 -0.671267,-1.462345 -0.159291,-0.464027 -0.267887,-0.894869 -0.336777,-1.208073 -0.03467,-0.157689 -0.05985,-0.288029 -0.07667,-0.381178 -0.0085,-0.04657 -0.01476,-0.084 -0.01923,-0.111 l -0.0052,-0.03262 -0.0016,-0.01015 -4.58e-4,-0.0035 -2.29e-4,-0.0014 -1.14e-4,-5.72e-4 c 0,-2.29e-4 -1.14e-4,-4.58e-4 1.131632,-0.170048 -0.419055,-1.064803 -0.418827,-1.064918 -0.418597,-1.065032 l 5.72e-4,-2.3e-4 0.0013,-4.57e-4 0.0034,-0.0013 0.0097,-0.0037 0.0309,-0.01179 c 0.02564,-0.0097 0.06123,-0.02277 0.105736,-0.03879 0.08902,-0.03205 0.214563,-0.07541 0.368476,-0.124275 0.305651,-0.09693 0.733061,-0.218225 1.214596,-0.312289 0.477188,-0.09326 1.037797,-0.165929 1.602068,-0.149907 0.554659,0.01579 1.196973,0.119467 1.771657,0.451324 0.429355,0.247864 0.767276,0.592079 1.032075,0.947394 v -2.984347 c -0.29272,0.08926 -0.671495,0.192019 -1.091465,0.274068 -0.477073,0.09326 -1.037797,0.165929 -1.602068,0.149793 -0.554544,-0.01579 -1.196858,-0.119353 -1.771544,-0.451211 -0.574684,-0.331856 -0.985614,-0.836164 -1.276618,-1.30866 -0.296039,-0.480621 -0.513463,-1.002551 -0.671267,-1.462344 -0.159291,-0.464027 -0.267888,-0.89487 -0.336777,-1.208074 -0.03467,-0.157689 -0.05986,-0.288029 -0.07667,-0.381177 -0.0085,-0.04657 -0.01476,-0.084 -0.01923,-0.111001 l -0.0052,-0.03262 -0.0016,-0.01015 -4.57e-4,-0.0035 -2.29e-4,-0.0014 -1.14e-4,-5.72e-4 c 0,-2.29e-4 -1.15e-4,-4.58e-4 1.131632,-0.170049 -0.419056,-1.064803 -0.418827,-1.064916 -0.418597,-1.065031 l 5.71e-4,-2.29e-4 0.0013,-4.58e-4 0.0034,-0.0013 0.0097,-0.0037 0.0309,-0.01179 c 0.02564,-0.0097 0.06123,-0.02277 0.105737,-0.03879 0.08902,-0.03205 0.214562,-0.07541 0.368476,-0.124275 0.30565,-0.09692 0.73306,-0.218224 1.214596,-0.312288 0.477188,-0.09326 1.037796,-0.165929 1.602067,-0.149908 0.554659,0.01579 1.196973,0.119468 1.771659,0.451326 0.429354,0.247862 0.767275,0.592077 1.032074,0.947394 v -2.984309 c -0.29272,0.08926 -0.671495,0.192018 -1.091466,0.274067 -0.477072,0.09327 -1.037796,0.165929 -1.602067,0.149794 -0.554545,-0.01579 -1.196859,-0.119355 -1.771544,-0.451211 -0.574685,-0.331857 -0.985615,-0.836165 -1.276618,-1.308661 -0.29604,-0.480619 -0.513463,-1.002551 -0.671268,-1.462344 -0.159291,-0.464028 -0.267887,-0.894869 -0.336777,-1.208074 -0.03467,-0.157689 -0.05986,-0.288028 -0.07667,-0.381178 -0.0044,-0.02381 -0.0082,-0.0452 -0.01133,-0.06396 -0.0032,-0.01808 -0.0057,-0.03387 -0.0079,-0.04703 l -0.0052,-0.03262 -0.0016,-0.01015 -4.57e-4,-0.0035 -2.29e-4,-0.0014 -1.14e-4,-5.72e-4 c 0,-2.29e-4 -1.14e-4,-4.58e-4 1.131632,-0.170047 -0.419055,-1.064803 -0.418827,-1.064919 -0.418597,-1.065033 l 5.72e-4,-2.29e-4 0.0013,-4.57e-4 0.0034,-0.0013 0.0097,-0.0037 0.0309,-0.01179 c 0.02564,-0.0097 0.06123,-0.02277 0.105736,-0.03879 0.08902,-0.03204 0.214563,-0.07541 0.368476,-0.124273 0.305651,-0.09693 0.733061,-0.218226 1.214596,-0.31229 0.477188,-0.09326 1.037797,-0.165928 1.602069,-0.149908 0.554658,0.01579 1.196972,0.11947 1.771657,0.451326 0.429354,0.247863 0.767275,0.592079 1.032074,0.947394 v -2.030015 c -0.235848,-0.215478 -0.548023,-0.519756 -0.863515,-0.881938 -0.319384,-0.366644 -0.662569,-0.815796 -0.930802,-1.312552 -0.263654,-0.488172 -0.495038,-1.096271 -0.495038,-1.75987 0,-0.663601 0.231384,-1.271698 0.495038,-1.759872 0.268233,-0.496755 0.611418,-0.945906 0.930802,-1.312552 0.322245,-0.369962 0.641056,-0.679391 0.877819,-0.895669 0.119239,-0.108942 0.219597,-0.195911 0.291804,-0.257019 0.03617,-0.03056 0.06534,-0.05481 0.08652,-0.07221 l 0.02564,-0.02083 0.0081,-0.0064 0.0028,-0.0023 0.0012,-8.01e-4 z m -6.152969,10.621366 -1.131746,0.16959 c -0.07896,-0.527308 0.216621,-1.03917 0.71269,-1.234392 z m 0,8.010338 -1.131746,0.169591 c -0.07896,-0.527309 0.216621,-1.03917 0.71269,-1.234393 z m 0,8.010339 -1.131746,0.16959 c -0.07896,-0.527308 0.216621,-1.03917 0.71269,-1.234392 z m 13.956527,0 0.419055,-1.064802 c 0.496069,0.195222 0.791535,0.707084 0.712576,1.234392 z m 0,-8.010339 0.419055,-1.064802 c 0.496069,0.195223 0.791535,0.707084 0.712576,1.234393 z m 0,-8.010338 0.419055,-1.064802 c 0.496069,0.195222 0.791535,0.707084 0.712576,1.234392 z M 38.92799,13.449922 38.215299,12.554595 c 0.41711,-0.331971 1.008272,-0.331971 1.425383,0 z"
     fill="#333333"
     id="path1"
     style="fill:url(#linearGradient2);stroke-width:1.14434" />
</svg>
