<?xml version="1.0" encoding="iso-8859-1"?>
<!-- Uploaded to: SVG Repo, www.svgrepo.com, Generator: SVG Repo Mixer Tools -->
<svg fill="url(#grad1)" version="1.1" id="Layer_1" xmlns="http://www.w3.org/2000/svg" xmlns:xlink="http://www.w3.org/1999/xlink" 
	 viewBox="0 0 512 512" xml:space="preserve">
<defs>
<linearGradient id="grad1" x1="0%" y1="0%" x2="0%" y2="100%">
  <stop offset="0%" style="stop-color:#244E73;stop-opacity:1" />
  <stop offset="100%" style="stop-color:#4E98D9;stop-opacity:1" />
</linearGradient>
</defs>

<g>
	<g>
		<g>
			<path d="M482.133,204.8c16.469,0,29.867-13.397,29.867-29.867c0-16.469-13.397-29.867-29.867-29.867h-4.267V51.2h8.533
				c14.114,0,25.6-11.486,25.6-25.6S500.514,0,486.4,0H25.6C11.486,0,0,11.486,0,25.6s11.486,25.6,25.6,25.6h8.533v93.867h-4.267
				C13.397,145.067,0,158.464,0,174.933C0,191.403,13.397,204.8,29.867,204.8h4.267v102.4h-4.267C13.397,307.2,0,320.597,0,337.067
				c0,16.469,13.397,29.867,29.867,29.867h4.267v136.533c0,4.71,3.823,8.533,8.533,8.533H204.8V401.067
				c0-4.71,3.823-8.533,8.533-8.533h85.333c4.71,0,8.533,3.823,8.533,8.533V512h162.133c4.71,0,8.533-3.823,8.533-8.533V366.933
				h4.267c16.469,0,29.867-13.397,29.867-29.867c0-16.469-13.397-29.867-29.867-29.867h-4.267V204.8H482.133z M25.6,34.133
				c-4.702,0-8.533-3.831-8.533-8.533c0-4.702,3.831-8.533,8.533-8.533h460.8c4.702,0,8.533,3.831,8.533,8.533
				c0,4.702-3.831,8.533-8.533,8.533h-17.067H42.667H25.6z M384,93.867c-18.825,0-34.133,15.309-34.133,34.133v17.067H332.8V128
				c0-28.237,22.963-51.2,51.2-51.2c28.237,0,51.2,22.963,51.2,51.2v17.067h-17.067V128C418.133,109.175,402.825,93.867,384,93.867z
				 M256,93.867c-18.825,0-34.133,15.309-34.133,34.133v17.067H204.8V128c0-28.237,22.963-51.2,51.2-51.2s51.2,22.963,51.2,51.2
				v17.067h-17.067V128C290.133,109.175,274.825,93.867,256,93.867z M128,93.867c-18.825,0-34.133,15.309-34.133,34.133v17.067H76.8
				V128c0-28.237,22.963-51.2,51.2-51.2s51.2,22.963,51.2,51.2v17.067h-17.067V128C162.133,109.175,146.825,93.867,128,93.867z
				 M179.2,452.267c0,4.71-3.823,8.533-8.533,8.533H85.333c-4.71,0-8.533-3.823-8.533-8.533v-51.2c0-4.71,3.823-8.533,8.533-8.533
				h85.333c4.71,0,8.533,3.823,8.533,8.533V452.267z M435.2,452.267c0,4.71-3.823,8.533-8.533,8.533h-85.333
				c-4.71,0-8.533-3.823-8.533-8.533v-51.2c0-4.71,3.823-8.533,8.533-8.533h85.333c4.71,0,8.533,3.823,8.533,8.533V452.267z
				 M482.133,324.267c7.057,0,12.8,5.743,12.8,12.8c0,7.057-5.743,12.8-12.8,12.8h-12.8H42.667h-12.8c-7.057,0-12.8-5.743-12.8-12.8
				c0-7.057,5.743-12.8,12.8-12.8h12.8h42.667h85.333h42.667h85.333h42.667h85.333h42.667H482.133z M128,256
				c-18.825,0-34.133,15.309-34.133,34.133V307.2H76.8v-17.067c0-28.237,22.963-51.2,51.2-51.2s51.2,22.963,51.2,51.2V307.2h-17.067
				v-17.067C162.133,271.309,146.825,256,128,256z M256,256c-18.825,0-34.133,15.309-34.133,34.133V307.2H204.8v-17.067
				c0-28.237,22.963-51.2,51.2-51.2s51.2,22.963,51.2,51.2V307.2h-17.067v-17.067C290.133,271.309,274.825,256,256,256z M384,256
				c-18.825,0-34.133,15.309-34.133,34.133V307.2H332.8v-17.067c0-28.237,22.963-51.2,51.2-51.2c28.237,0,51.2,22.963,51.2,51.2
				V307.2h-17.067v-17.067C418.133,271.309,402.825,256,384,256z M469.333,187.733H42.667h-12.8c-7.057,0-12.8-5.743-12.8-12.8
				s5.743-12.8,12.8-12.8h12.8h42.667h85.333h42.667h85.333h42.667h85.333h42.667h12.8c7.057,0,12.8,5.743,12.8,12.8
				s-5.743,12.8-12.8,12.8H469.333z"/>
			<rect x="93.867" y="409.6" width="68.267" height="34.133"/>
			<rect x="221.867" y="409.6" width="68.267" height="102.4"/>
			<rect x="349.867" y="409.6" width="68.267" height="34.133"/>
		</g>
	</g>
</g>
</svg>