<?xml version="1.0" encoding="UTF-8" standalone="no"?>
<!-- Uploaded to: SVG Repo, www.svgrepo.com, Generator: SVG Repo Mixer Tools -->

<svg
   width="800px"
   height="800px"
   viewBox="0 0 24 24"
   fill="none"
   version="1.1"
   id="svg1"
   sodipodi:docname="call-svgrepo-com.svg"
   inkscape:version="1.3.2 (091e20e, 2023-11-25, custom)"
   xmlns:inkscape="http://www.inkscape.org/namespaces/inkscape"
   xmlns:sodipodi="http://sodipodi.sourceforge.net/DTD/sodipodi-0.dtd"
   xmlns="http://www.w3.org/2000/svg"
   xmlns:svg="http://www.w3.org/2000/svg">
  <defs
     id="defs1" />
  <sodipodi:namedview
     id="namedview1"
     pagecolor="#505050"
     bordercolor="#eeeeee"
     borderopacity="1"
     inkscape:showpageshadow="0"
     inkscape:pageopacity="0"
     inkscape:pagecheckerboard="0"
     inkscape:deskcolor="#505050"
     inkscape:zoom="0.97125"
     inkscape:cx="400"
     inkscape:cy="400"
     inkscape:window-width="1920"
     inkscape:window-height="991"
     inkscape:window-x="-9"
     inkscape:window-y="-9"
     inkscape:window-maximized="1"
     inkscape:current-layer="svg1" />
  <path
     d="M 6.5296962,17.604757 C -1.2265986,9.8471148 -0.85546006,3.9802936 2.6929257,1.3195985 L 3.4790875,0.73404488 A 1.8594544,1.8594774 0 0 1 6.1121652,1.1766581 L 8.0919889,4.0254326 A 1.8807698,1.8807931 0 0 1 7.7785273,6.5206182 L 5.8726805,8.1681928 C 5.3962188,8.5807135 5.1630034,9.2063902 5.3774113,9.7994673 c 0.3962154,1.1033977 1.3579156,3.0506447 3.6323931,5.3238977 2.2744796,2.274506 4.2204496,3.236219 5.3238356,3.633693 0.594323,0.213154 1.219992,-0.01882 1.632507,-0.496529 l 1.647554,-1.903363 A 1.8807698,1.8807931 0 0 1 20.108855,16.0437 l 2.853756,1.981101 a 1.8556929,1.8557159 0 0 1 0.443862,2.628096 l -0.589309,0.793694 C 20.157756,24.992513 14.2885,25.362402 6.5296962,17.604757 Z"
     fill="#000000"
     id="path1"
     style="stroke-width:1.25384;fill:#244e73;fill-opacity:1" />
</svg>
