<?xml version="1.0" encoding="UTF-8" standalone="no"?>
<!-- Uploaded to: SVG Repo, www.svgrepo.com, Generator: SVG Repo Mixer Tools -->

<svg
   width="800px"
   height="800px"
   viewBox="0 -3.5 32 32"
   version="1.1"
   id="svg1"
   sodipodi:docname="e-mail.svg"
   inkscape:version="1.3.2 (091e20e, 2023-11-25, custom)"
   xmlns:inkscape="http://www.inkscape.org/namespaces/inkscape"
   xmlns:sodipodi="http://sodipodi.sourceforge.net/DTD/sodipodi-0.dtd"
   xmlns="http://www.w3.org/2000/svg"
   xmlns:svg="http://www.w3.org/2000/svg"
   xmlns:sketch="http://www.bohemiancoding.com/sketch/ns">
  <sodipodi:namedview
     id="namedview1"
     pagecolor="#505050"
     bordercolor="#eeeeee"
     borderopacity="1"
     inkscape:showpageshadow="0"
     inkscape:pageopacity="0"
     inkscape:pagecheckerboard="0"
     inkscape:deskcolor="#505050"
     inkscape:zoom="0.97125"
     inkscape:cx="400"
     inkscape:cy="400"
     inkscape:window-width="1920"
     inkscape:window-height="991"
     inkscape:window-x="-9"
     inkscape:window-y="-9"
     inkscape:window-maximized="1"
     inkscape:current-layer="svg1" />
  <title
     id="title1">mail</title>
  <desc
     id="desc1">Created with Sketch Beta.</desc>
  <defs
     id="defs1" />
  <g
     id="Page-1"
     stroke="none"
     stroke-width="1"
     fill="none"
     fill-rule="evenodd"
     sketch:type="MSPage"
     style="fill:#2e4e8c;fill-opacity:1">
    <g
       id="Icon-Set-Filled"
       sketch:type="MSLayerGroup"
       transform="translate(-414.000000, -261.000000)"
       fill="#000000"
       style="fill:#2e4e8c;fill-opacity:1">
      <path
         d="M430,275.916 L426.684,273.167 L415.115,285.01 L444.591,285.01 L433.235,273.147 L430,275.916 L430,275.916 Z M434.89,271.89 L445.892,283.329 C445.955,283.107 446,282.877 446,282.634 L446,262.862 L434.89,271.89 L434.89,271.89 Z M414,262.816 L414,282.634 C414,282.877 414.045,283.107 414.108,283.329 L425.147,271.927 L414,262.816 L414,262.816 Z M445,261 L415,261 L430,273.019 L445,261 L445,261 Z"
         id="mail"
         sketch:type="MSShapeGroup"
         style="fill:#2e4e8c;fill-opacity:1" />
    </g>
  </g>
</svg>
