<?xml version="1.0" encoding="UTF-8" standalone="no"?>
<!-- Uploaded to: SVG Repo, www.svgrepo.com, Generator: SVG Repo Mixer Tools -->

<svg
   fill="#000000"
   version="1.1"
   id="Capa_1"
   width="800px"
   height="800px"
   viewBox="0 0 466.92 466.92"
   xml:space="preserve"
   sodipodi:docname="tropical-rural-hotel-with-palm-tree-svgrepo-com.svg"
   inkscape:version="1.3.2 (091e20e, 2023-11-25, custom)"
   xmlns:inkscape="http://www.inkscape.org/namespaces/inkscape"
   xmlns:sodipodi="http://sodipodi.sourceforge.net/DTD/sodipodi-0.dtd"
   xmlns:xlink="http://www.w3.org/1999/xlink"
   xmlns="http://www.w3.org/2000/svg"
   xmlns:svg="http://www.w3.org/2000/svg"><defs
   id="defs8"><linearGradient
     id="linearGradient8"
     inkscape:collect="always"><stop
       style="stop-color:#244e73;stop-opacity:1;"
       offset="0"
       id="stop8" /><stop
       style="stop-color:#4e98d9;stop-opacity:1;"
       offset="1"
       id="stop9" /></linearGradient><linearGradient
     inkscape:collect="always"
     xlink:href="#linearGradient8"
     id="linearGradient9"
     x1="0"
     y1="233.4595"
     x2="466.92"
     y2="233.4595"
     gradientUnits="userSpaceOnUse" /></defs><sodipodi:namedview
   id="namedview8"
   pagecolor="#505050"
   bordercolor="#eeeeee"
   borderopacity="1"
   inkscape:showpageshadow="0"
   inkscape:pageopacity="0"
   inkscape:pagecheckerboard="0"
   inkscape:deskcolor="#505050"
   inkscape:zoom="0.97125"
   inkscape:cx="400"
   inkscape:cy="400"
   inkscape:window-width="1920"
   inkscape:window-height="991"
   inkscape:window-x="-9"
   inkscape:window-y="-9"
   inkscape:window-maximized="1"
   inkscape:current-layer="Capa_1" />
<g
   id="g8"
   style="fill:url(#linearGradient9)">
	<g
   id="g7"
   style="fill:url(#linearGradient9)">
		<path
   d="M43.798,112.533c0.022-8.406,6.84-15.224,15.254-15.224c6.226,0,11.558,3.745,13.944,9.077    c2.376-5.34,7.708-9.077,13.934-9.077c6.218,0,11.55,3.745,13.937,9.077c2.379-5.34,7.718-9.077,13.936-9.077    c6.216,0,11.558,3.745,13.942,9.077c2.379-5.34,7.711-9.077,13.929-9.077c6.226,0,11.558,3.745,13.944,9.077    c2.376-5.34,7.718-9.077,13.926-9.077c6.226,0,11.565,3.745,13.944,9.077c2.376-5.34,7.718-9.077,13.944-9.077    c6.215,0,11.55,3.745,13.926,9.077c2.395-5.34,7.719-9.077,13.944-9.077s11.56,3.745,13.937,9.077    c2.387-5.34,7.719-9.077,13.934-9.077c6.226,0,11.558,3.745,13.939,9.077c2.382-5.34,7.713-9.077,13.939-9.077    c6.22,0,11.552,3.745,13.929,9.077c2.387-5.34,7.718-9.077,13.944-9.077c6.215,0,11.547,3.745,13.943,9.077    c2.377-5.34,7.709-9.077,13.929-9.077c6.226,0,11.558,3.745,13.944,9.077c2.377-5.34,7.709-9.077,13.924-9.077    c6.226,0,11.558,3.745,13.944,9.077c2.376-5.34,7.703-9.077,13.934-9.077c8.425,0,15.274,6.833,15.274,15.27h4.805    c13.197,0,19.971-9.96,15.143-22.229l-6.398-16.268c-4.819-12.269-19.434-22.216-32.626-22.216H68.177    c-13.202,0-27.817,9.955-32.636,22.216L29.143,90.35C24.387,102.451,30.935,112.264,43.798,112.533z"
   id="path1"
   style="fill:url(#linearGradient9)" />
		<rect
   x="120.782"
   y="152.212"
   width="17.918"
   height="51.257"
   id="rect1"
   style="fill:url(#linearGradient9)" />
		<rect
   x="92.912"
   y="152.212"
   width="19.9"
   height="51.257"
   id="rect2"
   style="fill:url(#linearGradient9)" />
		<rect
   x="93.252"
   y="301.51"
   width="19.906"
   height="51.252"
   id="rect3"
   style="fill:url(#linearGradient9)" />
		<rect
   x="121.123"
   y="301.51"
   width="17.908"
   height="51.252"
   id="rect4"
   style="fill:url(#linearGradient9)" />
		<rect
   x="317.688"
   y="152.212"
   width="19.911"
   height="51.257"
   id="rect5"
   style="fill:url(#linearGradient9)" />
		<rect
   x="345.562"
   y="152.212"
   width="17.915"
   height="51.257"
   id="rect6"
   style="fill:url(#linearGradient9)" />
		<path
   d="M42.731,367.372c0,13.192,10.694,23.896,23.882,23.896h108.828c13.195,0,23.89-10.704,23.89-23.896v-51.76    c0-13.193,10.682-23.882,23.882-23.882h13.273c13.203,0,23.887,10.694,23.887,23.882v51.76c0,13.192,10.699,23.896,23.882,23.896    h23.476c-10.272-15.62-16.295-34.286-16.295-54.375c0-54.745,44.376-99.122,99.127-99.122c7.714,0,15.214,0.97,22.425,2.646    V127.78c-0.168,0-0.32,0.053-0.498,0.053h-4.794c-2.203,0-3.98-1.792-3.98-3.981c0-6.224-5.073-11.281-11.289-11.281    c-4.442,0-8.485,2.631-10.303,6.716c-1.274,2.885-6.002,2.877-7.276,0c-1.809-4.085-5.84-6.716-10.304-6.716    c-4.438,0-8.476,2.631-10.293,6.716c-1.27,2.885-6.002,2.877-7.276,0c-1.809-4.085-5.846-6.716-10.299-6.716    c-4.443,0-8.48,2.631-10.298,6.716c-1.279,2.885-6.002,2.877-7.282,0c-1.808-4.085-5.845-6.716-10.293-6.716    s-8.485,2.631-10.303,6.716c-1.27,2.885-6.002,2.877-7.271,0c-1.813-4.085-5.851-6.716-10.293-6.716    c-4.459,0-8.491,2.631-10.304,6.716c-1.274,2.885-6.007,2.877-7.276,0c-1.809-4.085-5.855-6.716-10.304-6.716    s-8.475,2.631-10.293,6.716c-1.279,2.885-6.005,2.877-7.274,0c-1.81-4.085-5.854-6.716-10.303-6.716s-8.476,2.631-10.293,6.716    c-1.28,2.885-6.013,2.877-7.292,0c-1.811-4.085-5.837-6.716-10.293-6.716c-4.44,0-8.485,2.631-10.303,6.716    c-1.264,2.885-6.002,2.877-7.274,0c-1.811-4.085-5.84-6.716-10.303-6.716c-4.438,0-8.475,2.631-10.293,6.716    c-1.272,2.885-6.005,2.877-7.277,0c-1.808-4.085-5.845-6.716-10.301-6.716c-4.441,0-8.478,2.631-10.293,6.716    c-1.28,2.885-6.005,2.877-7.285,0c-1.81-4.085-5.837-6.716-10.293-6.716c-4.44,0-8.485,2.631-10.303,6.716    c-1.272,2.885-5.995,2.877-7.274,0c-1.811-4.085-5.84-6.716-10.296-6.716c-4.438,0-8.482,2.631-10.301,6.716    c-1.271,2.885-6.004,2.877-7.276,0c-1.815-4.085-5.853-6.716-10.301-6.716c-6.192,0-11.258,5.04-11.273,11.235    c0,1.082-0.442,2.1-1.193,2.836c-0.759,0.734-1.808,1.066-2.795,1.13v26.756H24.781v-0.98c-2.125-1.688-3.57-4.179-3.57-7.102    c0-0.34,0.165-0.632,0.188-0.972c-1.546-1.262-3.458-2.141-5.631-2.141H9.014c-2.166,0-4.078,0.86-5.626,2.141    c0.033,0.34,0.19,0.624,0.19,0.972c0,2.933-1.455,5.428-3.578,7.112v103.986c1.958,1.691,3.271,4.113,3.271,6.906    c0,0.874-0.27,1.681-0.498,2.488c1.62,1.564,3.806,2.544,6.241,2.544h6.753c2.196,0,4.139-0.878,5.706-2.188    c-0.295-0.903-0.569-1.833-0.569-2.839c0-3.057,1.586-5.642,3.877-7.312v-94.715h17.94v204.942H42.731z M309.468,141.77h61.057    v71.653h-61.057V141.77z M199.341,247.937v-32.514h16.493v32.514H199.341z M223.807,215.423h12.434v32.514h-12.434V215.423z     M260.373,247.937h-16.178v-32.514h16.178V247.937z M199.341,141.77h61.042v65.689h-61.042V141.77z M85.201,141.77h61.042v71.653    H85.201V141.77z M85.201,291.73h61.042v71.66H85.201V291.73z"
   id="path6"
   style="fill:url(#linearGradient9)" />
		<path
   d="M386.059,253.325c-44.666,0-80.867,36.201-80.867,80.867s36.201,80.861,80.867,80.861s80.861-36.195,80.861-80.861    S430.725,253.325,386.059,253.325z M409.899,302.896c-7.424,1.087-15.889,4.448-19.859,13.645c0,0,22.465,45.199,23.216,75.515    h-33.829c0,0,18.194-43.97-9.09-65.953c0,0-9.719,3.682-20.21,20.901c-3.926,6.438-9.029,6.394-9.38-1.127    c-0.335-8.054,1.585-19.078,10.629-31.128c0,0-5.875-1.768-12.324-1.092c-6.835,0.726-11.101-1.671-6.896-7.932    c4.281-6.384,12.853-11.989,29.971-8.095c0,0,4.001-17.925,18.631-21.022c7.368-1.56,9.501,4.311,6.018,9.424    c-1.99,2.915-3.783,6.424-4.479,10.182c0,0,13.431-10.547,30.406-1.492C419.354,298.235,417.359,301.809,409.899,302.896z"
   id="path7"
   style="fill:url(#linearGradient9)" />
	</g>
</g>
</svg>
